 <svg
    width="50"
    height="32"
    viewBox="0 0 50 32"
    xmlns="http://www.w3.org/2000/svg"
  >
    <path d="M13.9485 20.3196L17.5347 13.9305L21.0668 7.63561C21.0966 7.58425 21.1128 7.52612 21.1139 7.46674C21.115 7.40736 21.1009 7.34869 21.0729 7.29629C21.045 7.24389 21.0041 7.19949 20.9542 7.1673C20.9043 7.13511 20.847 7.11619 20.7877 7.11234C16.7079 6.80536 13.2927 8.03852 11.6287 8.77982C11.3205 8.91654 11.0437 9.1149 10.8151 9.36268C10.5865 9.61046 10.4111 9.9024 10.2996 10.2205C9.79722 11.663 9.51555 13.1731 9.46408 14.6997C9.46408 14.8741 9.46408 15.0485 9.46408 15.223C9.45826 15.6579 9.4728 16.0858 9.50768 16.5067C9.67062 18.4984 10.228 20.4378 11.1473 22.2121C12.1388 24.1256 13.5238 25.8077 15.2114 27.1482C17.0543 28.6184 19.2143 29.639 21.5203 30.1291C21.587 30.1432 21.6563 30.1374 21.7198 30.1126C21.7833 30.0877 21.838 30.0448 21.8774 29.9891C21.9167 29.9334 21.9389 29.8675 21.9411 29.7994C21.9434 29.7312 21.9257 29.664 21.8901 29.6058C20.6262 27.4754 18.8747 25.6754 16.7795 24.354C16.2143 23.9993 15.6264 23.6823 15.0195 23.4051L14.8974 23.3493C14.3484 23.1022 13.7851 22.8879 13.2107 22.7074C13.1497 22.6882 13.0938 22.6556 13.047 22.6119C13.0003 22.5683 12.9638 22.5148 12.9404 22.4552C12.917 22.3957 12.9072 22.3317 12.9117 22.2679C12.9162 22.2041 12.935 22.1421 12.9665 22.0865L13.9485 20.3196Z" fill="url(#paint0_linear_5185_13190)" />
    <path d="M26.142 7.64493C26.0969 7.72524 26.0689 7.81401 26.0598 7.90565C26.0507 7.9973 26.0606 8.08984 26.0889 8.17747C26.1172 8.2651 26.1634 8.34592 26.2245 8.41487C26.2855 8.48381 26.3602 8.53938 26.4437 8.57809C32.2835 11.2712 36.2464 17.212 36.7208 24.0179C36.7437 24.3397 36.6426 24.6579 36.4383 24.9075C35.6584 25.8537 34.7677 26.7029 33.7853 27.4366C33.6239 27.557 33.4359 27.6367 33.2371 27.669C33.0384 27.7012 32.8348 27.6851 32.6436 27.622C32.4524 27.5588 32.2792 27.4505 32.1388 27.3062C31.9984 27.1619 31.8949 26.9858 31.837 26.793C30.9858 23.9691 28.5787 18.3143 22.4948 15.4119C22.3415 15.3381 22.1657 15.3256 22.0036 15.3772C21.8414 15.4288 21.7051 15.5404 21.6227 15.6893L21.0418 16.7253C20.9982 16.8031 20.9706 16.8888 20.9606 16.9773C20.9506 17.0659 20.9584 17.1556 20.9836 17.2411C21.0088 17.3266 21.0509 17.4061 21.1073 17.4751C21.1637 17.5441 21.2334 17.6011 21.3122 17.6428C26.9426 20.608 28.8752 26.043 29.4735 28.443C29.5504 28.761 29.5003 29.0965 29.3339 29.3782C29.1675 29.6599 28.8978 29.8656 28.5822 29.9518C27.7594 30.1693 26.9198 30.3175 26.0722 30.3948C25.8112 30.4169 25.5498 30.3564 25.3251 30.2218C25.1003 30.0872 24.9236 29.8854 24.8199 29.6448C23.7349 27.1488 21.7343 24.0371 18.108 21.9598C17.7103 21.733 17.2934 21.5167 16.8556 21.3161C16.7712 21.2772 16.6956 21.2212 16.6338 21.1517C16.572 21.0822 16.5252 21.0007 16.4964 20.9123C16.4675 20.8238 16.4573 20.7304 16.4663 20.6378C16.4753 20.5452 16.5033 20.4555 16.5487 20.3743L18.6958 16.5527L19.8924 14.423L23.7192 7.60133L24.5042 6.20595C24.5557 6.1146 24.5851 6.01239 24.5898 5.90759C24.5946 5.80279 24.5745 5.69835 24.5314 5.60272C24.4883 5.5071 24.4232 5.42297 24.3415 5.35717C24.2598 5.29137 24.1637 5.24573 24.0611 5.22396C23.5495 5.1193 23.0465 5.03907 22.5523 4.98325C19.0918 4.58557 13.8943 6.84315 11.9356 7.51991C11.8044 7.56555 11.6617 7.56627 11.5301 7.52197C11.3985 7.47768 11.2853 7.39087 11.2084 7.27522C11.1315 7.15956 11.0952 7.02162 11.1053 6.88309C11.1154 6.74457 11.1712 6.61332 11.264 6.51001C12.6887 4.94378 16.5947 2.14705 18.5317 1.29213C20.4686 0.437206 22.5631 -0.00293046 24.6803 1.46832e-05C24.9018 1.46832e-05 25.1216 1.46829e-05 25.3396 0.0139684C26.1687 0.0493603 26.9936 0.152025 27.806 0.320951C28.5226 0.470011 29.2274 0.67113 29.9148 0.922707C33.5942 2.27375 36.6122 4.98949 38.3426 8.50643C40.073 12.0234 40.383 16.0715 39.2081 19.8109C39.1647 19.9422 39.079 20.0554 38.9645 20.1329C38.8499 20.2104 38.7129 20.2478 38.5749 20.2392C38.4368 20.2306 38.3055 20.1766 38.2014 20.0856C38.0973 19.9945 38.0262 19.8715 37.9994 19.7359C36.7976 13.8247 32.9951 8.84147 27.7083 6.42049C27.5186 6.33337 27.3031 6.32089 27.1046 6.38554C26.9062 6.45018 26.7393 6.58721 26.6374 6.76933L26.142 7.64493Z" fill="url(#paint1_linear_5185_13190)" />
    <path fillRule="evenodd" clipRule="evenodd" d="M12.5865 4.1199C7.87986 3.01887 4.4346 3.01771 3.70413 4.52191C2.27697 7.46072 11.1624 16.2911 22.4757 21.8204C33.789 27.3497 45.7673 28.5121 47.1945 25.5733C48.1232 23.6608 44.6049 19.95 38.9163 16.0676C42.8192 18.8362 44.2881 21.1374 43.4461 22.8711C42.1317 25.5779 35.6822 25.8764 25.2621 20.7836C14.842 15.6908 7.46038 9.36801 8.77486 6.66121C9.26987 5.64189 10.9275 5.28072 13.3584 5.49854C13.0591 5.03902 12.8008 4.57821 12.5865 4.1199ZM35.8427 14.0885C35.9334 14.1422 36.0233 14.1958 36.1124 14.2492C36.0245 14.1949 35.9363 14.1407 35.8477 14.0864C35.846 14.0871 35.8444 14.0878 35.8427 14.0885Z" fill="url(#paint2_linear_5185_13190)" />
    <defs>
      <linearGradient id="paint0_linear_5185_13190" x1="16.4423" y1="-1.99601" x2="15.7021" y2="30.1366" gradientUnits="userSpaceOnUse">
        <stop stop-color="#6531E0" />
        <stop offset="1" stop-color="#ADA3C5" stop-opacity="0.98" />
      </linearGradient>
      <linearGradient id="paint1_linear_5185_13190" x1="25.5065" y1="0" x2="25.5065" y2="30.3993" gradientUnits="userSpaceOnUse">
        <stop stop-color="#6531E0" />
        <stop offset="1" stop-color="#6531E0" stop-opacity="0.35" />
      </linearGradient>
      <linearGradient id="paint2_linear_5185_13190" x1="27.6938" y1="10.2621" x2="22.3063" y2="21.749" gradientUnits="userSpaceOnUse">
        <stop stop-color="#6531E0" />
        <stop offset="1" stop-color="#613ABB" stop-opacity="0.98" />
      </linearGradient>
    </defs>

  </svg>